<svg width="362" height="350" xmlns="http://www.w3.org/2000/svg">
<rect width="362" height="350" rx="8" fill="#DBDBDB"/>
<path fill-rule="evenodd" clip-rule="evenodd" d="M174.6 166.2H187.4C188.725 166.2 189.8 167.274 189.8 168.6V181.4C189.8 182.725 188.725 183.8 187.4 183.8H174.6C173.274 183.8 172.2 182.725 172.2 181.4V168.6C172.2 167.274 173.274 166.2 174.6 166.2ZM179.24 175.88L175.72 180.28H186.28L183.64 176.76L181.854 179.145L179.24 175.88ZM185.4 171.92C185.4 171.19 184.81 170.6 184.08 170.6C183.35 170.6 182.76 171.19 182.76 171.92C182.76 172.65 183.35 173.24 184.08 173.24C184.81 173.24 185.4 172.65 185.4 171.92Z" fill="#969696"/>
</svg>
